t85v9o6C4C16C+16D+16D+4&D+16r16C+16C16<A+4&A+16A+16>C16C+8<E32G32.:A+32.>C+16.&C+64C8&C32.r64<A+8v10C8.&C32.:D+8.&D+32.:G+8.&G+32.r16&r64D+8G8.&G32.r64<D+16:G+16r16D+8.C+8.&C+32.:F8.&F32.r64F8.&F32.:G+8.&G+32.r64D+8.&D+32.:G+8.&G+32.r64F1&F8.:A+1&A+8.v9r16<A+2.&A+8.&A+64:>C2.&C8.&C64:D+2.&D+8.&D+64r2.<A+64:>C64:D+64r2C64:D+64<A+4.&A+16.&A+64:>C4.&C16.&C64:D+4.&D+16.&D+64r2.<A+4:>C4:D+4r2C64:D+64C64:D+64r4&r64>C16.&C64D+8D+8C8D+4F8D+4F8G8G+4G+8G+8G+8A8A+8>C8<D+8D+8C+8C8C+2&C+16.r32G8G8G8G+8A+8D+4C+8C8C+8C8<A+8G+4.&G+32.r64G+16A+4.F16F4.&F16G+8G+4.A+16A+16D4.&D16.:D+4.&D+16.:G4.&G16.:A+4.&A+16.r32C8.&C32.:D+8.&D+32.r4&r64>C8D+8D+8C8<G4:A+4:>D+4F8D+4F8G8G+8C8:D+8G+8G+8G+8C8:F8:A8A+8C8:F8:A8:>C8<D+8<F8:A+8:>D+8C+8C8C+2&C+16.r32<A+8:>D+8:G8G8<A+8:>D+8:G8G+8A+8D+4C+8<D+8:G8:>C8C+8<E8:G8:>C8<A+8C4.&C16.:F4.&F16.:G+4.&G+16.r32C+4.&C+16.:F4.&F16.:A+4.&A+16.r32G+4&G+16.&G+64:>C4&C16.&C64r64<G+8E4&E16.&E64:G+4&G+16.&G+64:>C4&C16.&C64r64C+8<E8.&E32.:F+8.&F+32.:>C8.&C32.r64<A+8A+8C4.&C16.:D+4.&D+16.:>C4.&C16.r32o3A+4.&A+16.:>C4.&C16.:D+4.&D+16.r4C+32:D+32r4C8.&C32.:D+8.&D+32.:G8.&G32.:>C8.&C32.r64D+8.&D+32.v10r64<G+2&G+8.&G+32:>C2&C8.&C32:F2&F8.&F32r32<G+8&G+32.:>F8&F32.r64<G4&G32.:>E4&E32.r64C+8C8.&C32.r64<A+8A+16B16>C8<C8.&C32.:F8.&F32.r4&r64C8.&C32.:E8.&E32.r8&r64G+16A+16D+8.&D+32.:F+8.&F+32.:>C8.&C32.r64C+8C8<D+8:G+8A+8.&A+32.r64A+8C+4.&C+16.:F4.&F16.:G+4.&G+16.r8&r32G+8>F8D+4.&D+16.r32C8.&C32.:D+8.&D+32.:G+8.&G+32.r64<G+8.&G+32.r64G+8>D+8r16C+8.C4<A+4G+8v11F8.:A+8.:>C+8.:F8.<G8.:>C+8.:F8.:G8.<G+4:>C+4:F4:G+4<F4:A+4:>C+4:F4<G+8:>G+8C4.:F4.:G+4.:>C4.<A+8<A+8&A+32.:>C+8&C+32.:D+8&D+32.:A+8&A+32.r64<G+8&G+32.:>G+8&G+32.r64<G+8:>G+8<G4:>C4:E4:G4v12r8<G8:>G8<G+8.&G+32.:>G+8.&G+32.r64<A+8.&A+32.:>A+8.&A+32.r64C+4.:D+4.:G+4.:>C+4.<C8:>C8<C4.:D+4.:G+4.:>C4.o4A+16:>A+16C16:>C16o4A+4:>D+4:G4:A+4<A+8:>A+8C+4:G4:A+4:>C+4<C4:D+4:G+4:>C4o4G8:>G8<G+4.&G+16.:>C4.&C16.:D+4.&D+16.:G+4.&G+16.r32o3F+8:A+8:>C+8>D+8C+8C16<D+8.:G+8.:>C+8.<C8:>C8<C+8:>C+8<G+8:>G+8C8:D+8:>C8o4A+8:>A+8<A+8.&A+32.:>D+8.&D+32.:G8.&G32.:A+8.&A+32.r64C+4&C+16.&C+64:D+4&D+16.&D+64:G+4&G+16.&G+64:>C+4&C+16.&C+64r64<D+8:>C8<C4&C16.&C64:D+4&D+16.&D+64:G+4&G+16.&G+64:>C4&C16.&C64r64o4A+16:>A+16C16:>C16o4A+8.&A+32.:>D+8.&D+32.:G8.&G32.:A+8.&A+32.r64<A+8:>A+8C+8.&C+32.:G8.&G32.:A+8.&A+32.:>C+8.&C+32.r64<C8.&C32.:D+8.&D+32.:G+8.&G+32.:>C8.&C32.r64o4G8:>G8<G+4.&G+16.:>C4.&C16.:D+4.&D+16.:G+4.&G+16.r32<G+8F8F8G8C8.&C32.:F8.&F32.:G+8.&G+32.r64A+8F4.&F16.:G+4.&G+16.r4>C64C64<F64:G+64:>C+64C64C+64C2&C8&C32:D+2&D+8&D+32:G+2&G+8&G+32r32G+16&G+64A+16C8.&C32.:D+8.&D+32.:>C8.&C32.r64C+8o4A+8.&A+32.:>C+8.&C+32.:A+8.&A+32.r64<G+8.&G+32.:>G+8.&G+32.r64<G+8:>G+8o3G+8&G+32.:>C8&C32.:D+8&D+32.r16&r64>C16:>C16<C+16:>C+16<D+16:>D+16<D+4&D+16:>D+4&D+16r16<C+16:>C+16<C16:>C16o4A+4&A+16:>D+4&D+16:G4&G16:A+4&A+16<A+16:>A+16C16:>C16<C+8:>C+8<E32G32.:A+32.>C+16.&C+64<C8&C32.:E8&E32.:>C8&C32.r64o4A+8:>A+8<G+8.&G+32.:>C8.&C32.:F8.&F32.:G+8.&G+32.r16&r64D+8G+8.&G+32.r64<D+16:G+16r16D+8.C+8:F8C+8F8.&F32.:G+8.&G+32.r64F8:G+8F8F8.&F32.:A+8.&A+32.v10r64>C4:D+4r4>C8D+8D+8C8<G4:A+4:>D+4F8<G4:A+4:>D+4F8G8C4:F4:G+4G+8G+8G+8C8:F8:A8A+8C8:F8:A8:>C8<D+8<F8:A+8:>D+8C+8C8<F2&F16.:A+2&A+16.:>C+2&C+16.r32<A+32>D+16.:G16.G8<A+8:>D+8:G8G+8A+8D+8D+8C+8<D+8:G8:>C8C+8<E8:G8:>C8<A+8C4&C16.&C64:F4&F16.&F64:G+4&G+16.&G+64r64G+8C+4&C+16.&C+64:F4&F16.&F64:A+4&A+16.&A+64r64F8F4&F16.&F64r64G+8G+4&G+16.&G+64r64A+8D4.&D16.:D+4.&D+16.:G4.&G16.:A+4.&A+16.r32<C8.&C32.:D+8.&D+32.r4&r64>C16<G+16>D+16<G+16>D+16<G+16>C16<G+16G8.&G32.:A+8.&A+32.:>D+8.&D+32.r64F16<A+16>D+8<G8:A+8>F16<F16>F16<G16G+16>C8&C32.:D+8&D+32.:G+8&G+32.r64G+16<G+16>C16D+16G+16G+16<A8:>C8:F8:A8<A+8:>A+8C8:F8:A8:>C8<D+16D+16D+16<F16>C+16<F16>C16<F16G+16F2&F32:G+2&G+32:>C+2&C+32r32<A+8:>D+8:G8G16G16<A+8:>D+8:G8G+8<A+8:>D+8:G8:A+8D+4C16C+16<D+8:G8:>C8C+8<E8:G8:>C8<A+16A+16C4.&C16.:F4.&F16.:G+4.&G+16.r32C32.:C+32.F32A+4&A+32.A+8G+4&G+16.&G+64:>C4&C16.&C64r64<G+16G+16E4&E16.&E64:G+4&G+16.&G+64:>C4&C16.&C64r64C+8<C+8.&C+32.:G8.&G32.:>C8.&C32.r64<A+16F16A+8C8:D+8:G+8>C8<A+8D+4:G+4G+8A+8A+16>C16<D+4.&D+16.:G+4.&G+16.:>C+4.&C+16.v9r32D+8.&D+32.:>C8.&C32.r64<G8.&G32.:>D+8.&D+32.r64<G+2&G+8.&G+32:>C2&C8.&C32:F2&F8.&F32r32<G+8.:>F8.<G4&G16:>E4&E16C+8C4<A+4>C8<C4.&C16.:F4.&F16.r32C8.&C32.:E8.&E32.r8&r64G+16A+16D+4:F+4:>C4C+8C8<D+8:G+8A+4A+8D+4.&D+16.:G+4.&G+16.r8&r32G+8v10>F8D+2C4:D+4:G+4C4C16C16D+8.C+8.C4<A+4G+16G+16A+8.:>D8.:F8.D8.:G8.D4:F4:G+4<A+4:>D4:F4G+8F4&F16.&F64:G+4&G+16.&G+64:>C4&C16.&C64r64<A+8C+8&C+32.:F8&F32.:A+8&A+32.r64G+8&G+32.r64G+8<G4:>C4:E4:G4v12r8o4G8:>G8<G+8.&G+32.:>G+8.&G+32.r64<A+8.&A+32.:>A+8.&A+32.r64C+4&C+16.&C+64:D+4&D+16.&D+64:G+4&G+16.&G+64:>C+4&C+16.&C+64r64<C8:>C8<C4&C16.&C64:D+4&D+16.&D+64:G+4&G+16.&G+64:>C4&C16.&C64r64o4A+16:>A+16C16:>C16o4A+8.&A+32.:>D+8.&D+32.:G8.&G32.:A+8.&A+32.r64<A+8:>A+8C+8.&C+32.:G8.&G32.:A+8.&A+32.:>C+8.&C+32.r64<C8.&C32.:D+8.&D+32.:G+8.&G+32.:>C8.&C32.r64o4G8:>G8<G+4.&G+16.:>C4.&C16.:D+4.&D+16.:G+4.&G+16.r32o3F+8:A+8:>C+8>D+8C+8C16<F8.:G+8.:>C+8.<C8:>C8<C+8:>C+8<G+8:>G+8C8:F8:G8:>C8o4A+8:>A+8<A+8.&A+32.:>D+8.&D+32.:G8.&G32.:A+8.&A+32.r64C+4&C+16.&C+64:D+4&D+16.&D+64:G+4&G+16.&G+64:>C+4&C+16.&C+64r64<C8:>C8<C4&C16.&C64:D+4&D+16.&D+64:G+4&G+16.&G+64:>C4&C16.&C64r64o4A+16:>A+16C16:>C16o4A+8.&A+32.:>D+8.&D+32.:G8.&G32.:A+8.&A+32.r64<A+8:>A+8C+8.&C+32.:G8.&G32.:A+8.&A+32.:>C+8.&C+32.r64<C8.&C32.:D+8.&D+32.:G+8.&G+32.:>C8.&C32.r64o4G8:>G8<G+4.&G+16.:>C4.&C16.:D+4.&D+16.:G+4.&G+16.r32<G+8F8F8G8C8.&C32.:F8.&F32.:G+8.&G+32.r64A+8F4.&F16.:G+4.&G+16.r4>C64C64<C+64:F64:G+64:>C+64<C64:>C64<C+64:>C+64<G+2&G+8&G+32:>C2&C8&C32:D+2&D+8&D+32:G+2&G+8&G+32r32<G+64>G+16<A+16:>A+16v11C8.&C32.:F8.&F32.:G+8.&G+32.:>C8.&C32.r64<C+8:>C+8o4A+8.&A+32.:>D+8.&D+32.:F8.&F32.:A+8.&A+32.r64<G+8.&G+32.:>G+8.&G+32.r64<G+8:>C8:D+8:G+8o3G4:G+4:>C4:D+4G4:>C4:D+4<G+8.&G+32.:>C8.&C32.:E8.&E32.r64<G+8.&G+32.:>C8.&C32.:E8.&E32.r64<G+4:A+4:>D+4<G+4:A+4:>C+4<D+4:G+4:>C4<G+4:A+4:>D+4<F8:G+8:>C8:F8<G+8:>C8<G+8:>C8:G+8<G+8:>C8:G+8<G+8:>C8<G+8:>C8:G+8<G+8:>C8:A+8<G+8:>C8:G+8<G8:A+8:>G8<G8:A+8G8:A+8:>D+8C+8:E8:>C+8<E8:G8E8:G8:>D+8<E8:G8E8:G8:A+8C8:D+8:>C8<C8:D+8C8:D+8<F8:>F8<F+32:>F+32<A+16.:>C+16.<A+8:>C+8:G+8<A+8:>C+8:A+8<A+8:>C+8:>C8<D+8:G8:>C+8<D+8:G8D+8:G8:>D+8<D+8:G8:>C8<F8:G+8F8:G+8:>C+8<F8:G+8F8:G+8:>D+8<C+8:F8C+8:F8C+8:F8C+8:F8C+8:F8C+8:F8:B8C+8:F8:A+8C+8:F8:G+8<A+8:>C+8:G8<A+8:>C+8<A+8:>C+8:G8<A+8:>C+8:G+8<A+8:>C+8<A+8:>C+8:A+8<A+8:>C+8<A+8:>C+8:A+8D+8:G8:>C8<D+8:G8D+8:G8D+16:F+16F16C8:D+8C8:D+8C8:D+8C8:D+8D+8:G8:>D+8<D+16:G16>C+16<D+8:G8D+8:G8:B8<A+16:>D16A+16<A+8:>D8<A+8:>D8:G+8<A+8:>D8:A+8<G+8:>C8:G+8<G+8:>C8<G+8:>C8<G+8:>C8<G+8:>C8<G+8:>C8:F8<G+8:>C8:G8<G+8:>C8:G+8<G8:A+8:>A+8<G8:A+8G8:A+8:>D+8D+8:G8:>C+8<E8:G8E8:G8:>C8<E8:G8D+8:G8<G+8:>C8<G+8:>C8<G+8:>C8<G+8:>C8:F8<G8:A+8:>E8<G8:A+8:>F8<G8:A+8:>G8<G8:A+8:>G+8D+8:G8:A+8D+8:G8D+8:G8:>C8<C8:D+8:G+8<A+8:>D8<A+8:>D8<A+8:>D8<A+8:>D8o3G+4.&G+16.:>C4.&C16.:F4.&F16.r8&r32F8:>F8<F8:G+8:>C+8:F8<F8:>F8D+8.:G+8.:A+8.:>D+8.<C+8.:F8.:G+8.:>C+8.<C8.:F8.:G+8.:>C8.r16<C8:>C8<C+8:F8:G+8:>C+8<C8:>C8<C4.:F4.:G4.:>C4.o4A+8:>A+8<A+4.:>D+4.:G4.:A+4.<G8:>G8C+4.:E4.:G4.:>C+4.<C8:>C8<C4.:E4.:G4.:>C4.v13r4o4G+8:>G+8<A8.&A32.:>A8.&A32.r64<B8.&B32.:>B8.&B32.r64D4.:E4.:A4.:>D4.<C+8:>C+8<C+4:E4:A4:>C+4o4G+8A16:>B16C+16:>C+16o4B4:>E4:G+4:B4<B8:>B8D4:G+4:B4:>D4<C+4:E4:A4:>C+4o4G+8:>G+8<A4.&A16.:>C+4.&C+16.:F+4.&F+16.:A4.&A16.r32o3G8:B8:>D8>E8D8C+16<F+8.:A8.:>D8.<C+16:>C+16<C+16:>C+16<D8:>D8<A8:>A8C+8:E8:G+8:>C+8o4B8:>B8<B8.&B32.:>E8.&E32.:F+8.&F+32.:B8.&B32.r64D4.:E4.:A4.:>D4.<E16:>E16<C+4.&C+16:E4.&E16:A4.&A16:>C+4.&C+16o4B16:>B16C+16:>C+16o4B4:>E4:G+4:B4D8:>D8<C+4:E4:G+4:>C+4o4B4:>C+4:E4:B4<B8:>B8<A4.&A16.:>C+4.&C+16.:E4.&E16.:A4.&A16.r32<A8F+8:>F+8E8:G+8:>E8<D8:>D8<C+8.&C+32.:F+8.&F+32.:A8.&A32.:>C+8.&C+32.r64<D8:>D8o4B8.&B32.:>E8.&E32.:F+8.&F+32.:B8.&B32.r64<>C+8:E8:A8r8C+16C+16v12<F+8:A8:>D8C+8D8C+4.&C+16.:E4.&E16.:A4.&A16.r32A16B16C+32E32.:A32.>C+8&C+32.D8o4B4:>E4:G+4:B4<A4:>A4<A16:>C+16:A16C+16<F+8:A8:>D8C+8D8C+4.&C+16.&C+64:E4.&E16.&E64:A4.&A16.&A64r64A16B16>C+8.&C+32.r64D8<B8.&B32.r64A8.&A32.r64A8v10>C+4C+16D16E16E4&E16r16D16C+16<B4&B16B16>C+16D8<E32F32.:G+32.>D16.&D64C+8&C+32.r64<B8C+8.&C+32.:E8.&E32.:A8.&A32.r16&r64E8G+8.&G+32.r64<E16:A16r16E8.F+8.&F+32.r64F+8.&F+32.:A8.&A32.r64E8.&E32.:F+8.&F+32.:A8.&A32.r64E8.&E32.:F+8.&F+32.:B8.&B32.v13r64<E1:A1:B1:>D1v11B1:>D+1:E1:B1E1.&E4.&E16&E64:A1.&A4.&A16&A64:B1.&B4.&B16&B64:>C+1.&C+4.&C+16&C+64:E1.&E4.&E16&E64
